<svg width="296" height="110" viewBox="0 0 296 110" fill="none" xmlns="http://www.w3.org/2000/svg">
<path d="M2.07185 0.00278152C1.52097 -0.0365887 1.04247 0.378072 1.0031 0.928951L0.361529 9.90605C0.322159 10.4569 0.73682 10.9354 1.2877 10.9748C1.83858 11.0142 2.31707 10.5995 2.35644 10.0486L2.92673 2.06898L10.9064 2.63927C11.4573 2.67864 11.9357 2.26398 11.9751 1.7131C12.0145 1.16222 11.5998 0.683726 11.0489 0.644356L2.07185 0.00278152ZM295.001 41.0002L294.397 40.2029C231.288 87.9701 187.966 111.877 145.743 107.085C124.644 104.69 103.714 95.1141 80.6363 77.564C57.5507 60.0082 32.3641 34.5109 2.75627 0.345336L2.00056 1.00024L1.24484 1.65514C30.8822 35.8547 56.1752 61.4748 79.4257 79.156C102.684 96.8428 123.947 106.624 145.518 109.072C188.637 113.966 232.57 89.5086 295.604 41.7976L295.001 41.0002Z" fill="black"/>
</svg>
